
 
http://www.imdb.com/title/tt1433108

Release Date: 24 November 2010 (USA)
Genre:Action | Crime | Drama
Plot:An ex-con sets out to avenge his brother's death after they were double-crossed during a heist years ago. During his campaign, however, he's tracked by a veteran cop and an egocentric hit man.
Cast:
Dwayne Johnson ... Driver
Mauricio Lopez ... Prison Guard
Jim Gaines ... Inmate (as James Gaines)
Oliver Jackson-Cohen ... Killer
Tom Berenger ... Warden
Jan Hoag ... Receptionist
Courtney Gains ... Telemarketer
Billy Bob Thornton ... Cop
Michael Irby ... Vaquero
Josh Clark ... Uniform
Carla Gugino ... Cicero
Michael Blain-Rozgay ... TV Anchor
Mike Epps ... Roy Grone
Sidney S. Liufau ... Kenny (as Sid S. Liufau)
Maggie Grace ... Lily

File Name
Faster 2010 1080p BRRip H264 Wrath.mp4
File Size
Format : MPEG-4
Format profile : Base Media
Codec ID : isom
File size : 3.75 GiB
Duration : 1h 37mn
Overall bit rate : 5 485 Kbps
Video
ID : 1
Format : AVC
Format/Info : Advanced Video Codec
Format profile : High@L4.1
Format settings, CABAC : Yes
Format settings, ReFrames : 3 frames
Codec ID : avc1
Codec ID/Info : Advanced Video Coding
Duration : 1h 37mn
Bit rate mode : Variable
Bit rate : 4 849 Kbps
Maximum bit rate : 15.2 Mbps
Width : 1 920 pixels
Height : 800 pixels
Display aspect ratio : 2.40:1
Frame rate mode : Constant
Frame rate : 23.976 fps
Resolution : 24 bits
Colorimetry : 4:2:0
Scan type : Progressive
Bits/(Pixel*Frame) : 0.132
Stream size : 3.32 GiB (88%)
Audio #1
ID : 2
Format : AAC
Format/Info : Advanced Audio Codec
Format version : Version 4
Format profile : LC
Format settings, SBR : No
Codec ID : 40
Duration : 1h 37mn
Bit rate mode : Variable
Bit rate : 192 Kbps
Maximum bit rate : 261 Kbps
Channel(s) : 2 channels
Channel positions : L R
Sampling rate : 48.0 KHz
Resolution : 16 bits
Stream size : 133 MiB (3%)
Audio #2
ID : 3
Format : AAC
Format/Info : Advanced Audio Codec
Format version : Version 4
Format profile : LC
Format settings, SBR : No
Codec ID : 40
Duration : 1h 37mn
Bit rate mode : Variable
Bit rate : 442 Kbps
Maximum bit rate : 569 Kbps
Channel(s) : 6 channels
Channel positions : Front: L C R, Rear: L R, LFE
Sampling rate : 48.0 KHz
Resolution : 16 bits
Stream size : 310 MiB (8%)
English SRT : External
Language : English
 
http://leetleech.org/images/27812613343283953744.png 
http://leetleech.org/images/66638576583141049109.png 
http://leetleech.org/images/14687360678345425600.png 
http://leetleech.org/images/40243937988543191835.png
